<?xml version="1.0" encoding="UTF-8" standalone="no"?>
<!-- Created with Inkscape (http://www.inkscape.org/) -->

<svg
   xmlns:dc="http://purl.org/dc/elements/1.1/"
   xmlns:cc="http://creativecommons.org/ns#"
   xmlns:rdf="http://www.w3.org/1999/02/22-rdf-syntax-ns#"
   xmlns:svg="http://www.w3.org/2000/svg"
   xmlns="http://www.w3.org/2000/svg"
   xmlns:sodipodi="http://sodipodi.sourceforge.net/DTD/sodipodi-0.dtd"
   xmlns:inkscape="http://www.inkscape.org/namespaces/inkscape"
   width="200"
   height="200"
   id="svg2"
   version="1.1"
   inkscape:version="0.48.5 r10040"
   sodipodi:docname="montacarga.svg"
   inkscape:export-filename="F:\Mis Documentos (1)\Vector\My OCALs\Montacargas.png"
   inkscape:export-xdpi="90"
   inkscape:export-ydpi="90">
  <defs
     id="defs4">
    <inkscape:path-effect
       effect="skeletal"
       id="path-effect3047"
       is_visible="true"
       pattern="m -60.798401,-164.79624 0,10 10,-5 z"
       copytype="single_stretched"
       prop_scale="1"
       scale_y_rel="false"
       spacing="0"
       normal_offset="0"
       tang_offset="0"
       prop_units="false"
       vertical_pattern="false"
       fuse_tolerance="0" />
  </defs>
  <sodipodi:namedview
     id="base"
     pagecolor="#ffffff"
     bordercolor="#666666"
     borderopacity="1.0"
     inkscape:pageopacity="0.0"
     inkscape:pageshadow="2"
     inkscape:zoom="1.4609712"
     inkscape:cx="251.36895"
     inkscape:cy="127.28715"
     inkscape:document-units="px"
     inkscape:current-layer="g3018"
     showgrid="false"
     inkscape:window-width="1680"
     inkscape:window-height="948"
     inkscape:window-x="0"
     inkscape:window-y="31"
     inkscape:window-maximized="1"
     fit-margin-top="0"
     fit-margin-left="0"
     fit-margin-right="0"
     fit-margin-bottom="0"
     borderlayer="true" />
  <metadata
     id="metadata7">
    <rdf:RDF>
      <cc:Work
         rdf:about="">
        <dc:format>image/svg+xml</dc:format>
        <dc:type
           rdf:resource="http://purl.org/dc/dcmitype/StillImage" />
        <dc:title />
      </cc:Work>
    </rdf:RDF>
  </metadata>
  <g
     style="display:inline"
     inkscape:label="Trazos copia"
     id="g3018"
     inkscape:groupmode="layer"
     transform="translate(0,-150.45181)">
    <g
       id="g3104"
       transform="matrix(0.43352715,0,0,0.43352715,15.837785,196.28597)">
      <g
         id="g3100">
        <path
           id="path3043"
           d="m 293.87461,11.646164 0,84.1875 84.1875,0 0,-84.1875 -84.1875,0 z m 62.4375,16.9375 3.15625,2.21875 -17.71875,27.65625 -14.21875,20.40625 c -5.49616,-7.64655 -10.04704,-16.39009 -15.09375,-25.0625 l 8.9375,-4.46875 7.4375,14.875 27.5,-35.625 z"
           style="fill:#000000;fill-opacity:1;stroke:#000000;stroke-width:2;stroke-miterlimit:4;stroke-opacity:1;stroke-dasharray:none"
           inkscape:connector-curvature="0" />
        <path
           inkscape:connector-curvature="0"
           id="path3046"
           d="m 293.86927,99.342734 0,19.999996 8.5,0 0,-10.21875 29.34375,0 0,10.21875 8.5,0 0,-10.21875 29.3125,0 0,10.21875 8.53125,0 0,-19.999996 -84.1875,0 z"
           style="fill:#000000;fill-opacity:1;stroke:#000000;stroke-width:2;stroke-miterlimit:4;stroke-opacity:1;stroke-dasharray:none" />
      </g>
      <g
         id="g3048"
         transform="translate(-247.78038,3.422381)">
        <g
           id="use3050"
           inkscape:tile-x0="281.83841"
           inkscape:tile-y0="16.4375"
           transform="translate(215.61,104.86768)">
          <path
             id="path3083"
             d="m 281.84375,16.4375 0,84.1875 84.1875,0 0,-84.1875 -84.1875,0 z m 62.4375,16.9375 3.15625,2.21875 L 329.71875,63.25 315.5,83.65625 C 310.00384,76.0097 305.45296,67.26616 300.40625,58.59375 l 8.9375,-4.46875 7.4375,14.875 27.5,-35.625 z"
             style="fill:#000000;fill-opacity:1;stroke:#000000;stroke-width:2;stroke-miterlimit:4;stroke-opacity:1;stroke-dasharray:none"
             inkscape:connector-curvature="0" />
          <path
             inkscape:connector-curvature="0"
             id="path3085"
             d="m 281.83841,104.13407 0,20 8.5,0 0,-10.21875 29.34375,0 0,10.21875 8.5,0 0,-10.21875 29.3125,0 0,10.21875 8.53125,0 0,-20 -84.1875,0 z"
             style="fill:#000000;fill-opacity:1;stroke:#000000;stroke-width:2;stroke-miterlimit:4;stroke-opacity:1;stroke-dasharray:none" />
        </g>
        <g
           id="use3052"
           inkscape:tile-x0="281.83841"
           inkscape:tile-y0="16.4375"
           transform="translate(215.61,217.94908)">
          <path
             id="path3089"
             d="m 281.84375,16.4375 0,84.1875 84.1875,0 0,-84.1875 -84.1875,0 z m 62.4375,16.9375 3.15625,2.21875 L 329.71875,63.25 315.5,83.65625 C 310.00384,76.0097 305.45296,67.26616 300.40625,58.59375 l 8.9375,-4.46875 7.4375,14.875 27.5,-35.625 z"
             style="fill:#000000;fill-opacity:1;stroke:#000000;stroke-width:2;stroke-miterlimit:4;stroke-opacity:1;stroke-dasharray:none"
             inkscape:connector-curvature="0" />
          <path
             inkscape:connector-curvature="0"
             id="path3091"
             d="m 281.83841,104.13407 0,20 8.5,0 0,-10.21875 29.34375,0 0,10.21875 8.5,0 0,-10.21875 29.3125,0 0,10.21875 8.53125,0 0,-20 -84.1875,0 z"
             style="fill:#000000;fill-opacity:1;stroke:#000000;stroke-width:2;stroke-miterlimit:4;stroke-opacity:1;stroke-dasharray:none" />
        </g>
        <g
           id="use3054"
           inkscape:tile-x0="281.83841"
           inkscape:tile-y0="16.4375"
           transform="translate(304.01248,104.86768)">
          <path
             id="path3095"
             d="m 281.84375,16.4375 0,84.1875 84.1875,0 0,-84.1875 -84.1875,0 z m 62.4375,16.9375 3.15625,2.21875 L 329.71875,63.25 315.5,83.65625 C 310.00384,76.0097 305.45296,67.26616 300.40625,58.59375 l 8.9375,-4.46875 7.4375,14.875 27.5,-35.625 z"
             style="fill:#000000;fill-opacity:1;stroke:#000000;stroke-width:2;stroke-miterlimit:4;stroke-opacity:1;stroke-dasharray:none"
             inkscape:connector-curvature="0" />
          <path
             inkscape:connector-curvature="0"
             id="path3097"
             d="m 281.83841,104.13407 0,20 8.5,0 0,-10.21875 29.34375,0 0,10.21875 8.5,0 0,-10.21875 29.3125,0 0,10.21875 8.53125,0 0,-20 -84.1875,0 z"
             style="fill:#000000;fill-opacity:1;stroke:#000000;stroke-width:2;stroke-miterlimit:4;stroke-opacity:1;stroke-dasharray:none" />
        </g>
        <g
           id="use3056"
           inkscape:tile-x0="281.83841"
           inkscape:tile-y0="16.4375"
           transform="translate(304.01248,217.94908)">
          <path
             id="path3101"
             d="m 281.84375,16.4375 0,84.1875 84.1875,0 0,-84.1875 -84.1875,0 z m 62.4375,16.9375 3.15625,2.21875 L 329.71875,63.25 315.5,83.65625 C 310.00384,76.0097 305.45296,67.26616 300.40625,58.59375 l 8.9375,-4.46875 7.4375,14.875 27.5,-35.625 z"
             style="fill:#000000;fill-opacity:1;stroke:#000000;stroke-width:2;stroke-miterlimit:4;stroke-opacity:1;stroke-dasharray:none"
             inkscape:connector-curvature="0" />
          <path
             inkscape:connector-curvature="0"
             id="path3103"
             d="m 281.83841,104.13407 0,20 8.5,0 0,-10.21875 29.34375,0 0,10.21875 8.5,0 0,-10.21875 29.3125,0 0,10.21875 8.53125,0 0,-20 -84.1875,0 z"
             style="fill:#000000;fill-opacity:1;stroke:#000000;stroke-width:2;stroke-miterlimit:4;stroke-opacity:1;stroke-dasharray:none" />
        </g>
      </g>
    </g>
    <g
       id="g3114"
       style="fill:#000000;fill-opacity:1;stroke:#000000;stroke-width:2;stroke-opacity:1"
       transform="matrix(0.43352715,0,0,0.43352715,19.378186,200.6265)">
      <g
         transform="matrix(1.6807903,0,0,1,-101.59427,-1.4890457)"
         id="g3024"
         style="fill:#000000;fill-opacity:1;stroke:#000000;stroke-width:1.54267073;stroke-opacity:1">
        <path
           inkscape:connector-curvature="0"
           id="path3026"
           d="m 145.97949,257.95454 c -11.57775,0 -20.96875,17.18021 -20.96875,38.375 0,21.19479 9.391,38.375 20.96875,38.375 11.57775,0 20.96875,-17.18021 20.96875,-38.375 0,-21.19479 -9.391,-38.375 -20.96875,-38.375 z m 0,20.0625 c 5.53088,0 10.03125,8.18742 10.03125,18.3125 0,10.12508 -4.50037,18.34375 -10.03125,18.34375 -5.53088,0 -10,-8.21867 -10,-18.34375 0,-10.12508 4.46912,-18.3125 10,-18.3125 z"
           style="fill:#000000;fill-opacity:1;stroke:#000000;stroke-width:1.54267073;stroke-miterlimit:4;stroke-opacity:1;stroke-dasharray:none;display:inline" />
        <path
           inkscape:connector-curvature="0"
           id="path3028"
           d="m 66.797912,268.45078 c -10.083518,0 -18.28125,14.97813 -18.28125,33.4375 0,18.45937 8.197732,33.4375 18.28125,33.4375 10.083518,0 18.25,-14.97813 18.25,-33.4375 0,-18.45937 -8.166482,-33.4375 -18.25,-33.4375 z m 0,17.46875 c 4.817055,0 8.71875,7.15042 8.71875,15.96875 0,8.81833 -3.901695,15.96875 -8.71875,15.96875 -4.817055,0 -8.75,-7.15042 -8.75,-15.96875 0,-8.81833 3.932945,-15.96875 8.75,-15.96875 z"
           style="fill:#000000;fill-opacity:1;stroke:#000000;stroke-width:1.54267073;stroke-miterlimit:4;stroke-opacity:1;stroke-dasharray:none;display:inline" />
      </g>
      <g
         style="fill:#000000;fill-opacity:1;stroke:#000000;stroke-width:1.54267073;stroke-opacity:1"
         transform="matrix(1.6807903,0,0,1,-101.59427,-1.4890457)"
         id="g3030">
        <path
           inkscape:connector-curvature="0"
           id="path3032"
           d="m 163.59375,72.15625 0,183.4375 10.65625,0 0,-150.15625 52.20206,-6.25 0,-3.8125 -52.20206,0 0,-23.21875 z"
           style="fill:#000000;fill-opacity:1;stroke:#000000;stroke-width:1.54267073;stroke-miterlimit:4;stroke-opacity:1;stroke-dasharray:none;display:inline"
           sodipodi:nodetypes="ccccccccc" />
        <path
           inkscape:connector-curvature="0"
           id="path3035"
           d="m 60.8125,98.8125 -16.28125,117.8125 -11,0 0,21.21875 74.96875,0 0,-21.21875 -7.625,0 c 0.0451,-0.22188 0.0937,-0.45044 0.0937,-0.6875 l 0,-16.75 c 0,-1.7064 -1.233201,-3.09375 -2.75,-3.09375 l -16.46875,0 c 0,0 -2.575506,-27.66157 -5.75,-32.59375 -3.174494,-4.93218 -10.25,-1 -10.25,-1 l 8.375,54.125 -18.84375,0 14.78125,-107.09375 46.03125,0 7.375,53.40625 c -0.0798,0.051 -0.15032,0.0878 -0.21875,0.15625 L 105.4375,180.875 c -0.6636,0.6636 -0.50945,1.8968 0.34375,2.75 l 1.03125,1.03125 c 0.8532,0.8532 2.0864,1.00735 2.75,0.34375 l 7.03125,-7.0625 14.0625,37.15625 1.46875,10.53125 c -6.51318,6.6028 -13.12437,13.21505 -19.75,19.8125 l -75.59375,0 3.09375,57.59375 4.875,0 c -0.0058,-0.38222 -0.03125,-0.77144 -0.03125,-1.15625 0,-22.29416 9.88421,-40.34375 22.0625,-40.34375 12.17829,0 22.0625,18.04959 22.0625,40.34375 0,0.38481 -0.02541,0.77403 -0.03125,1.15625 l 32.9375,0 c -0.17942,-2.19041 -0.3125,-4.40556 -0.3125,-6.6875 0,-24.79768 10.9854,-44.90625 24.53125,-44.90625 5.31226,0 10.23427,3.08965 14.25,8.34375 l 0,-14.34375 0,-1.75 0,-21.5 0,-123.125 -10.65625,0 0,123.125 -7.15625,0 -16.5625,-119.96875 0,-3.34375 -0.46875,0 0,-0.0625 -0.4375,0.0625 -63.6875,0 -0.4375,-0.0625 z m 63.65625,71.25 3.0625,22.3125 -6.96875,-18.40625 3.90625,-3.90625 z"
           style="fill:#000000;fill-opacity:1;stroke:#000000;stroke-width:1.54267073;stroke-miterlimit:4;stroke-opacity:1;stroke-dasharray:none;display:inline" />
      </g>
    </g>
  </g>
</svg>
