<?xml version="1.0" encoding="UTF-8"?>
<!-- Generator: Adobe Illustrator 17.0.0, SVG Export Plug-In . SVG Version: 6.00 Build 0)  -->
<!DOCTYPE svg PUBLIC "-//W3C//DTD SVG 1.1//EN" "http://www.w3.org/Graphics/SVG/1.1/DTD/svg11.dtd">
<svg version="1.1" id="Layer_1" xmlns="http://www.w3.org/2000/svg" xmlns:xlink="http://www.w3.org/1999/xlink" x="0px" y="0px" width="276px" height="133.25px" viewBox="0 0 276 133.25" enable-background="new 0 0 276 133.25" xml:space="preserve">
<g>
	<polygon fill="none" stroke="#6F768D" stroke-miterlimit="10" points="66.546,97.561 79.466,108.59 273.891,48.404 257.978,40.841     "/>
	<polygon fill="none" stroke="#6F768D" stroke-miterlimit="10" points="66.861,118.044 79.466,130.648 79.466,108.59 66.546,97.561     "/>
	<polygon fill="none" stroke="#6F768D" stroke-miterlimit="10" points="58.196,92.677 58.196,89.841 248.524,36.744 248.524,39.423     "/>
	<polygon fill="none" stroke="#6F768D" stroke-miterlimit="10" points="233.399,30.206 248.524,36.744 58.196,89.841 47.324,79.6     "/>
	<polygon fill="none" stroke="#6F768D" stroke-miterlimit="10" points="47.167,82.593 47.324,79.6 58.196,89.841 58.196,92.677  "/>
	<polygon fill="none" stroke="#6F768D" stroke-miterlimit="10" points="211.498,20.674 224.418,26.346 40.864,73.298 31.253,64.632     "/>
	<polygon fill="none" stroke="#6F768D" stroke-miterlimit="10" points="224.576,29.024 224.418,26.346 40.864,73.298 40.864,76.606     "/>
	<path fill="none" stroke="#6F768D" stroke-miterlimit="10" d="M30.86,68.098"/>
	<polygon fill="none" stroke="#6F768D" stroke-miterlimit="10" points="31.201,67.248 31.201,65 40.707,73.072 40.707,76.291  "/>
	<polygon fill="none" stroke="#6F768D" stroke-miterlimit="10" points="191.489,12.244 203.227,17.601 24.872,58.566 15.97,50.531     "/>
	<polygon fill="none" stroke="#6F768D" stroke-miterlimit="10" points="25.03,61.166 25.03,58.566 203.227,17.601 203.227,20.043     "/>
	<polygon fill="none" stroke="#6F768D" stroke-miterlimit="10" points="15.734,53.603 15.734,50.531 25.03,58.566 25.03,61.166  "/>
	<polygon fill="none" stroke="#6F768D" stroke-miterlimit="10" points="173.895,3.973 184.399,9.225 11.401,45.778 4.049,38.53  "/>
	<polygon fill="none" stroke="#6F768D" stroke-miterlimit="10" points="11.244,48.167 11.244,45.778 184.399,9.225 184.399,11.654     "/>
	<polygon fill="none" stroke="#6F768D" stroke-miterlimit="10" points="3.957,41.629 4.049,38.53 11.244,45.778 11.244,48.167  "/>
	<g>
		<polygon fill="none" points="199.367,87.32 257.505,67.626 258.923,55.179 200.154,73.928   "/>
		<polygon fill="none" points="104.517,119.304 180.932,93.622 181.248,80.388 104.045,104.494   "/>
		<path fill="none" stroke="#6F768D" stroke-miterlimit="10" d="M79.466,108.59v22.058l192.219-65.544l2.206-16.701L79.466,108.59z     M180.932,93.622l-76.415,25.682l-0.473-14.81l77.203-24.106L180.932,93.622z M257.505,67.626L199.367,87.32l0.788-13.392    l58.769-18.749L257.505,67.626z"/>
	</g>
	<polygon fill="none" stroke="#6F768D" stroke-miterlimit="10" points="66.074,103.076 4.154,44.78 3.957,41.629 15.183,52.027    15.734,53.603 25.03,61.166 31.201,67.248 40.864,76.606 47.167,82.593 58.196,92.677 66.074,100.082  "/>
	<polygon fill="none" stroke="#6F768D" stroke-miterlimit="10" points="52.051,90.314 42.125,92.677 32.356,83.224 32.199,71.092    41.81,80.545  "/>
	<line fill="none" stroke="#6F768D" stroke-miterlimit="10" x1="41.81" y1="80.545" x2="41.81" y2="92.362"/>
	<polygon fill="none" stroke="#6F768D" stroke-miterlimit="10" points="22.115,61.954 12.977,63.529 5.414,55.966 4.154,44.78    12.819,52.973  "/>
	<line fill="none" stroke="#6F768D" stroke-miterlimit="10" x1="12.819" y1="52.973" x2="12.819" y2="63.529"/>
	<path fill="none" stroke="#6F768D" stroke-miterlimit="10" d="M82.827,86.427l5.357,4.202L82.827,86.427z"/>
	<path fill="none" stroke="#6F768D" stroke-miterlimit="10" d="M63.395,70.777l4.412,3.151L63.395,70.777z"/>
	<path fill="none" stroke="#6F768D" stroke-miterlimit="10" d="M46.694,56.176l4.412,3.571L46.694,56.176z"/>
	<path fill="none" stroke="#6F768D" stroke-miterlimit="10" d="M32.409,43.992l2.836,2.101L32.409,43.992z"/>
	<polygon fill="none" stroke="#6F768D" stroke-miterlimit="10" points="154.463,66.365 160.292,69.516 163.444,68.413    156.984,65.262 153.986,65.875  "/>
	<polygon fill="none" stroke="#6F768D" stroke-miterlimit="10" points="175.733,60.22 182.193,63.214 163.444,68.413    156.984,65.262  "/>
	<polygon fill="none" stroke="#6F768D" stroke-miterlimit="10" points="153.518,47.458 158.717,50.137 138.707,55.179    133.354,52.651  "/>
	<polygon fill="none" stroke="#6F768D" stroke-miterlimit="10" points="133.354,52.651 138.707,55.179 136.058,56.045    130.781,53.317  "/>
	<line fill="none" stroke="#6F768D" stroke-miterlimit="10" x1="64.734" y1="72.037" x2="124.37" y2="56.912"/>
	<line fill="none" stroke="#6F768D" stroke-miterlimit="10" x1="124.37" y1="56.912" x2="124.37" y2="55.179"/>
	<polygon fill="none" stroke="#6F768D" stroke-miterlimit="10" points="113.892,40.762 117.988,43.283 120.903,42.495    116.728,40.211  "/>
	<polygon fill="none" stroke="#6F768D" stroke-miterlimit="10" points="134.532,36.193 138.313,38.241 120.903,42.495    116.728,40.211  "/>
	<polygon fill="none" stroke="#6F768D" stroke-miterlimit="10" points="117.201,25.794 120.115,27.764 105.838,30.928    102.066,29.015  "/>
	<path fill="none" stroke="#6F768D" stroke-miterlimit="10" d="M99.712,29.576l3.072,1.812L99.712,29.576z"/>
	<line fill="none" stroke="#6F768D" stroke-miterlimit="10" x1="90.574" y1="33.83" x2="90.574" y2="31.624"/>
	<line fill="none" stroke="#6F768D" stroke-miterlimit="10" x1="159.715" y1="18.993" x2="159.715" y2="16.997"/>
	<path fill="none" stroke="#6F768D" stroke-miterlimit="10" d="M248.524,39.423l5.83,2.363L248.524,39.423z"/>
	<path fill="none" stroke="#6F768D" stroke-miterlimit="10" d="M230.484,44.622l5.357,2.442L230.484,44.622z"/>
	<path fill="none" stroke="#6F768D" stroke-miterlimit="10" d="M239.15,46.04l-5.357-2.442L239.15,46.04z"/>
	<polygon fill="none" stroke="#6F768D" stroke-miterlimit="10" points="216.094,34.591 211.262,32.687 224.654,29.142    229.657,31.112  "/>
	<line fill="none" stroke="#6F768D" stroke-miterlimit="10" x1="155.251" y1="48.325" x2="196.767" y2="38.005"/>
	<line fill="none" stroke="#6F768D" stroke-miterlimit="10" x1="196.767" y1="38.005" x2="196.767" y2="36.272"/>
	<path fill="none" stroke="#6F768D" stroke-miterlimit="10" d="M224.654,29.142l5.002,1.969L224.654,29.142z"/>
	<polygon fill="none" stroke="#6F768D" stroke-miterlimit="10" points="186.762,24.061 191.331,25.676 194.364,24.849    189.795,23.234  "/>
	<path fill="none" stroke="#6F768D" stroke-miterlimit="10" d="M184.281,11.535l4.609,1.379L184.281,11.535z"/>
	<polygon fill="none" stroke="#6F768D" stroke-miterlimit="10" points="58.196,92.677 66.074,100.082 66.546,97.561 88.184,90.629    81.564,86.139  "/>
	<polygon fill="none" stroke="#6F768D" stroke-miterlimit="10" points="40.864,76.606 47.167,82.593 47.324,79.6 67.807,73.928    63.395,70.777  "/>
	<polyline fill="none" stroke="#6F768D" stroke-miterlimit="10" points="25.03,61.166 31.201,67.248 31.253,64.632 51.106,59.748    46.694,56.176  "/>
	<polyline fill="none" stroke="#6F768D" stroke-miterlimit="10" points="11.244,48.167 15.183,52.027 15.734,50.531 35.245,46.093    32.409,43.992  "/>
	<polygon fill="none" stroke="#6F768D" stroke-miterlimit="10" points="102.066,29.015 105.838,30.928 102.784,31.388    99.712,29.576  "/>
	<polygon fill="none" stroke="#6F768D" stroke-miterlimit="10" points="235.841,47.064 230.484,44.622 233.793,43.598 239.15,46.04     "/>
	<polygon fill="none" stroke="#6F768D" stroke-miterlimit="10" points="254.354,41.786 239.15,46.04 233.793,43.598 248.524,39.423     "/>
	<polygon fill="none" stroke="#6F768D" stroke-miterlimit="10" points="213.812,35.405 208.553,33.174 210.806,32.591    216.094,34.591  "/>
	<polygon fill="none" stroke="#6F768D" stroke-miterlimit="10" points="207.207,21.413 207.678,21.58 194.364,24.849    189.795,23.234 203.227,20.043  "/>
	<polygon fill="none" stroke="#6F768D" stroke-miterlimit="10" points="188.691,12.855 184.399,11.654 173.117,14.033    176.728,15.464  "/>
	<polygon fill="none" stroke="#6F768D" stroke-miterlimit="10" points="170.637,14.556 174.081,16.042 176.728,15.464    173.117,14.033  "/>
</g>
</svg>