<?xml version="1.0" encoding="UTF-8" standalone="no"?>
<!-- Generator: Adobe Illustrator 19.0.0, SVG Export Plug-In . SVG Version: 6.00 Build 0)  -->

<svg
   xmlns:dc="http://purl.org/dc/elements/1.1/"
   xmlns:cc="http://creativecommons.org/ns#"
   xmlns:rdf="http://www.w3.org/1999/02/22-rdf-syntax-ns#"
   xmlns:svg="http://www.w3.org/2000/svg"
   xmlns="http://www.w3.org/2000/svg"
   xmlns:sodipodi="http://sodipodi.sourceforge.net/DTD/sodipodi-0.dtd"
   xmlns:inkscape="http://www.inkscape.org/namespaces/inkscape"
   version="1.1"
   id="Layer_1"
   x="0px"
   y="0px"
   viewBox="0 0 45 45"
   xml:space="preserve"
   inkscape:version="0.48.5 r10040"
   width="100%"
   height="100%"
   sodipodi:docname="phone_green.svg"><metadata
     id="metadata51"><rdf:RDF><cc:Work
         rdf:about=""><dc:format>image/svg+xml</dc:format><dc:type
           rdf:resource="http://purl.org/dc/dcmitype/StillImage" /></cc:Work></rdf:RDF></metadata><defs
     id="defs49" /><sodipodi:namedview
     pagecolor="#ffffff"
     bordercolor="#666666"
     borderopacity="1"
     objecttolerance="10"
     gridtolerance="10"
     guidetolerance="10"
     inkscape:pageopacity="0"
     inkscape:pageshadow="2"
     inkscape:window-width="1680"
     inkscape:window-height="948"
     id="namedview47"
     showgrid="false"
     inkscape:zoom="4.4249965"
     inkscape:cx="114.5161"
     inkscape:cy="51.755431"
     inkscape:window-x="0"
     inkscape:window-y="31"
     inkscape:window-maximized="1"
     inkscape:current-layer="Layer_1" /><g
     id="g3"
     transform="matrix(0.10546867,0,0,0.10546867,-0.5574983,0)"><path
       style="fill:#6ac259"
       d="m 173.118,320 c -3.802,0 -7.117,-1.916 -8.841,-4.723 -0.077,-0.107 -0.115,-0.218 -0.201,-0.324 -11.191,-19.861 -22.959,-54.583 -22.959,-101.619 0,-47.04 11.759,-81.758 22.959,-101.615 0.085,-0.111 0.124,-0.218 0.201,-0.324 1.724,-2.82 5.043,-4.727 8.841,-4.727 V 0 C 114.208,0 66.451,95.509 66.451,213.333 c 0,117.815 47.757,213.333 106.667,213.333 V 320 z"
       id="path5"
       inkscape:connector-curvature="0" /><path
       style="fill:#6ac259"
       d="m 237.118,12.8 c 0,-3.277 -1.25,-6.554 -3.75,-9.05 -2.5,-2.5 -5.773,-3.75 -9.05,-3.75 h -38.4 v 106.667 h 38.4 c 3.277,0 6.549,-1.25 9.05,-3.75 2.5,-2.5 3.75,-5.777 3.75,-9.05 V 12.8 z"
       id="path7"
       inkscape:connector-curvature="0" /><path
       style="fill:#6ac259"
       d="m 237.118,332.8 c 0,-3.277 -1.25,-6.554 -3.75,-9.05 -2.5,-2.5 -5.773,-3.75 -9.05,-3.75 h -38.4 v 106.667 h 38.4 c 3.277,0 6.549,-1.25 9.05,-3.75 2.5,-2.5 3.75,-5.777 3.75,-9.05 V 332.8 z"
       id="path9"
       inkscape:connector-curvature="0" /><path
       style="fill:#6ac259"
       d="m 253.118,253.338 -16,-16.004 c 6.409,-6.409 9.941,-14.933 9.941,-24 0,-9.067 -3.533,-17.591 -9.941,-24.009 l 16,-16 c 10.684,10.688 16.567,24.892 16.567,40.009 0,15.108 -5.883,29.316 -16.567,40.004 z"
       id="path11"
       inkscape:connector-curvature="0" /><path
       style="fill:#6ac259"
       d="m 285.092,285.316 -16,-16 c 14.985,-14.985 23.223,-34.867 23.223,-55.983 0,-21.12 -8.243,-40.998 -23.223,-55.983 l 16,-16.004 c 19.26,19.26 29.858,44.821 29.858,71.987 0,27.158 -10.598,52.724 -29.858,71.983 z"
       id="path13"
       inkscape:connector-curvature="0" /><path
       style="fill:#6ac259"
       d="m 317.084,317.308 -16,-16.009 c 23.535,-23.535 36.501,-54.775 36.501,-87.966 0,-33.191 -12.966,-64.439 -36.501,-87.974 l 16,-16.004 c 27.819,27.814 43.132,64.738 43.132,103.979 0.004,39.231 -15.314,76.164 -43.132,103.974 z"
       id="path15"
       inkscape:connector-curvature="0" /></g><g
     id="g17"
     transform="translate(0,-381.66701)" /><g
     id="g19"
     transform="translate(0,-381.66701)" /><g
     id="g21"
     transform="translate(0,-381.66701)" /><g
     id="g23"
     transform="translate(0,-381.66701)" /><g
     id="g25"
     transform="translate(0,-381.66701)" /><g
     id="g27"
     transform="translate(0,-381.66701)" /><g
     id="g29"
     transform="translate(0,-381.66701)" /><g
     id="g31"
     transform="translate(0,-381.66701)" /><g
     id="g33"
     transform="translate(0,-381.66701)" /><g
     id="g35"
     transform="translate(0,-381.66701)" /><g
     id="g37"
     transform="translate(0,-381.66701)" /><g
     id="g39"
     transform="translate(0,-381.66701)" /><g
     id="g41"
     transform="translate(0,-381.66701)" /><g
     id="g43"
     transform="translate(0,-381.66701)" /><g
     id="g45"
     transform="translate(0,-381.66701)" /></svg>