<?xml version="1.0" encoding="UTF-8"?>
<!-- Svg Vector Icons : http://www.onlinewebfonts.com/icon -->
<!DOCTYPE svg PUBLIC "-//W3C//DTD SVG 1.1//EN" "http://www.w3.org/Graphics/SVG/1.1/DTD/svg11.dtd">
<svg version="1.1" xmlns="http://www.w3.org/2000/svg" xmlns:xlink="http://www.w3.org/1999/xlink" x="0px" y="0px" viewBox="0 0 1000 1000" enable-background="new 0 0 1000 1000" xml:space="preserve">
<metadata> Svg Vector Icons : http://www.onlinewebfonts.com/icon </metadata>
<g><g><path d="M876.8,811V659.9c0-32.5-26.3-58.8-58.8-58.8h-15.4V49.4c0-4.9-2.5-9.5-6.6-12.3l-37.3-24.7C749,6,735.9,13,735.9,24.7v177.2l-11.1-30c-15-40.3-53.4-67.1-96.5-67.1H371.4c-43.3,0-81.9,27.1-96.7,67.8L264,201.9V24.7C264,13,251,6,241.2,12.5l-37.3,24.7c-4.1,2.7-6.6,7.3-6.6,12.3v551.7H182c-32.5,0-58.8,26.3-58.8,58.8V811h-25c-8.1,0-14.7,6.6-14.7,14.7V907c0,8.1,6.6,14.7,14.7,14.7h63.4v38.9c0,16.2,13.2,29.4,29.4,29.4h77.9c16.2,0,29.4-13.2,29.4-29.4v-38.9h403.6v38.9c0,16.2,13.2,29.4,29.4,29.4h77.9c16.2,0,29.4-13.2,29.4-29.4v-38.9h63.4c8.1,0,14.7-6.6,14.7-14.7v-81.3c0-8.1-6.6-14.7-14.7-14.7L876.8,811L876.8,811z M283.5,283.8h432.9v144.8H283.5V283.8z M273.5,769.9h-50.2c-15.3,0-27.8-12.4-27.8-27.8v-0.7c0-15.3,12.4-27.8,27.8-27.8h50.2c15.3,0,27.8,12.4,27.8,27.8v0.7C301.2,757.4,288.8,769.9,273.5,769.9z M599.9,778.1H400.1c-16.2,0-29.4-13.2-29.4-29.4V562.4c0-16.2,13.2-29.4,29.4-29.4h199.8c16.2,0,29.4,13.2,29.4,29.4v186.3C629.3,764.9,616.2,778.1,599.9,778.1z M776.8,769.9h-50.2c-15.3,0-27.8-12.4-27.8-27.8v-0.7c0-15.3,12.4-27.8,27.8-27.8h50.2c15.3,0,27.8,12.4,27.8,27.8v0.7C804.5,757.4,792.1,769.9,776.8,769.9z M595.4,640.6H404.1c-8,0-14.6-6.5-14.6-14.6v-0.3c0-8,6.5-14.5,14.6-14.5h191.4c8,0,14.6,6.5,14.6,14.5v0.3C610,634.1,603.5,640.6,595.4,640.6z M595.4,581.8H404.1c-8,0-14.6-6.5-14.6-14.5V567c0-8,6.5-14.5,14.6-14.5h191.4c8,0,14.6,6.5,14.6,14.5v0.3C610,575.3,603.5,581.8,595.4,581.8z M595.4,758.2H404.1c-8,0-14.6-6.5-14.6-14.6v-0.3c0-8,6.5-14.6,14.6-14.6h191.4c8,0,14.6,6.5,14.6,14.6v0.3C610,751.7,603.5,758.2,595.4,758.2z M595.4,699.4H404.1c-8,0-14.6-6.5-14.6-14.5v-0.3c0-8,6.5-14.6,14.6-14.6h191.4c8,0,14.6,6.5,14.6,14.6v0.3C610,692.9,603.5,699.4,595.4,699.4z"/></g><g/><g/><g/><g/><g/><g/><g/><g/><g/><g/><g/><g/><g/><g/><g/></g>
</svg>