<?xml version="1.0" encoding="UTF-8"?>
<!-- Svg Vector Icons : http://www.onlinewebfonts.com/icon -->
<!DOCTYPE svg PUBLIC "-//W3C//DTD SVG 1.1//EN" "http://www.w3.org/Graphics/SVG/1.1/DTD/svg11.dtd">
<svg version="1.1" xmlns="http://www.w3.org/2000/svg" xmlns:xlink="http://www.w3.org/1999/xlink" x="0px" y="0px" viewBox="0 0 1000 1000" enable-background="new 0 0 1000 1000" xml:space="preserve">
<metadata> Svg Vector Icons : http://www.onlinewebfonts.com/icon </metadata>
<g><path d="M956.7,256.4h-91.6l0-165c0-42.1-34.5-76.5-76.5-76.5H210.5c-42.1,0-76.5,34.4-76.5,76.5l0.1,165H43.2c-18.3,0-33.2,14.9-33.2,33.2v183.4c0,18.3,14.9,33.3,33.2,33.3h91l0.1,195.6h-10.6c-20.1,0-36.6,16.4-36.6,36.6v75.3c0,20.1,16.5,36.6,36.6,36.6h13.3v109.2c0,14.1,11.5,25.5,25.5,25.5h76.7c14,0,25.5-11.4,25.5-25.5v-76.5h480.5v76.5c0,14.1,11.5,25.5,25.5,25.5h76.6c14.1,0,25.5-11.4,25.5-25.5V850.4h2.7c20.1,0,36.6-16.5,36.6-36.6v-75.3c0-20.2-16.5-36.6-36.6-36.6h-10.6l0-195.6h91.6c18.3,0,33.3-14.9,33.3-33.3V289.7C990,271.3,975.1,256.4,956.7,256.4z M134,464.9H98.5v-167h35.6L134,464.9z M202.1,299.3c0-14.4,11.8-26.2,26.2-26.2h542.9c14.4,0,26.2,11.8,26.2,26.2v157.4c0,14.4-11.8,26.2-26.2,26.2H228.3c-14.4,0-26.2-11.8-26.2-26.2L202.1,299.3L202.1,299.3z M391.7,594.7v-41.5h215.9v41.5H391.7z M607.7,640.9v41.5H391.7v-41.5H607.7z M243.2,792.2c0,4.2-3.4,7.7-7.6,7.7h-81.1c-4.2,0-7.7-3.4-7.7-7.7v-37c0-4.2,3.4-7.6,7.7-7.6h81.1c4.2,0,7.6,3.4,7.6,7.6V792.2z M202.8,680.6c-4.1,0-7.4-3.4-7.4-7.4V605c0-4,3.3-7.4,7.4-7.4h114.4c4.1,0,7.4,3.3,7.4,7.4v68.2c0,4-3.4,7.4-7.4,7.4H202.8z M703.9,793.9H295.5v-41.5h408.4V793.9L703.9,793.9z M682.3,680.6c-4.1,0-7.4-3.4-7.4-7.4V605c0-4,3.3-7.4,7.4-7.4h114.4c4.1,0,7.4,3.3,7.4,7.4v68.2c0,4-3.4,7.4-7.4,7.4H682.3z M852.7,792.2c0,4.2-3.5,7.7-7.6,7.7h-81.2c-4.2,0-7.6-3.4-7.6-7.7v-37c0-4.2,3.4-7.6,7.6-7.6H845c4.2,0,7.6,3.4,7.6,7.6V792.2z M901.5,464.9h-36.4l0-167h36.3V464.9z"/></g>
</svg>